<svg xmlns="http://www.w3.org/2000/svg" width="90" height="90" viewBox="0 0 90 90">
  <g id="Group_16" data-name="Group 16" transform="translate(-50 -40)">
    <rect id="Rectangle_1" data-name="Rectangle 1" width="90" height="90" rx="45" transform="translate(50 40)" fill="#435eef"/>
    <g id="Group_15" data-name="Group 15" transform="translate(0 6.621)">
      <path id="Path_20" data-name="Path 20" d="M66.456-18.954a10.78,10.78,0,0,1,3.87.666,8.488,8.488,0,0,1,3,1.908,8.6,8.6,0,0,1,1.944,3.015,10.877,10.877,0,0,1,.693,3.987,11.074,11.074,0,0,1-.693,4.023,8.655,8.655,0,0,1-1.944,3.042,8.529,8.529,0,0,1-3,1.926,10.652,10.652,0,0,1-3.87.675,10.777,10.777,0,0,1-3.9-.675,8.7,8.7,0,0,1-3.024-1.926,8.529,8.529,0,0,1-1.962-3.042,11.074,11.074,0,0,1-.693-4.023,10.877,10.877,0,0,1,.693-3.987,8.47,8.47,0,0,1,1.962-3.015,8.655,8.655,0,0,1,3.024-1.908A10.907,10.907,0,0,1,66.456-18.954Zm0,15.1a3.169,3.169,0,0,0,2.835-1.359A7.516,7.516,0,0,0,70.2-9.342a7.468,7.468,0,0,0-.909-4.122,3.176,3.176,0,0,0-2.835-1.35,3.255,3.255,0,0,0-2.9,1.35,7.409,7.409,0,0,0-.918,4.122,7.457,7.457,0,0,0,.918,4.131A3.247,3.247,0,0,0,66.456-3.852Z" transform="translate(47.56 78.333)" fill="#fff"/>
      <path id="Path_21" data-name="Path 21" d="M0-26.226H4.9a2.178,2.178,0,0,1,1.3.36,1.972,1.972,0,0,1,.72.954l5.076,14.04q.342.918.693,2t.657,2.268q.252-1.188.585-2.268t.657-2l5.04-14.04a2.027,2.027,0,0,1,.7-.909,2.022,2.022,0,0,1,1.278-.405h4.932L16.02,0H10.512Zm34.452,7.56V0h-5.58V-18.666Zm.648-5.112a2.949,2.949,0,0,1-.27,1.251,3.293,3.293,0,0,1-.738,1.026A3.613,3.613,0,0,1,33-20.8a3.379,3.379,0,0,1-1.323.261A3.141,3.141,0,0,1,30.4-20.8a3.593,3.593,0,0,1-1.053-.7,3.24,3.24,0,0,1-.72-1.026,3.035,3.035,0,0,1-.261-1.251,3.141,3.141,0,0,1,.261-1.278,3.316,3.316,0,0,1,.72-1.044,3.372,3.372,0,0,1,1.053-.7,3.238,3.238,0,0,1,1.278-.252A3.485,3.485,0,0,1,33-26.8a3.4,3.4,0,0,1,1.089.7,3.369,3.369,0,0,1,.738,1.044A3.052,3.052,0,0,1,35.1-23.778ZM49.284,0H44.208L36.972-18.666h4.644a1.719,1.719,0,0,1,1,.279,1.39,1.39,0,0,1,.549.693l2.592,8.37q.306,1.026.585,2t.477,1.944q.2-.972.486-1.944t.612-2l2.7-8.37a1.4,1.4,0,0,1,.54-.693,1.583,1.583,0,0,1,.936-.279H56.52Z" transform="translate(67 98.054)" fill="#fff"/>
    </g>
  </g>
</svg>
