<svg xmlns="http://www.w3.org/2000/svg" width="288.9" height="56.7" viewBox="0 0 288.9 56.7">
  <path id="Path_1" data-name="Path 1" d="M51.84-25.92a2.841,2.841,0,0,1,2.01.6,2.057,2.057,0,0,1,.63,1.56A4.381,4.381,0,0,1,53.55-21a3.6,3.6,0,0,1-2.91,1.26,34.909,34.909,0,0,1-8.52-.72A51.625,51.625,0,0,1,31.83-5.61Q25.8.3,19.74.3q-6.24,0-9.3-7.26T7.38-26.58a108.482,108.482,0,0,1,1.5-18.96,8.948,8.948,0,0,1,1.53-4.23,4.37,4.37,0,0,1,3.39-1.11q3.96,0,3.96,3.42a12.775,12.775,0,0,1-.12,1.32,119.987,119.987,0,0,0-1.8,19.56q0,9.18,1.53,13.95t4.59,4.77q3.12,0,6.78-4.32a48.616,48.616,0,0,0,6.72-10.86,14.894,14.894,0,0,1-5.52-5.91,18.1,18.1,0,0,1-1.86-8.37,19.493,19.493,0,0,1,1.47-8.01,10.859,10.859,0,0,1,4.02-4.89,10.356,10.356,0,0,1,5.67-1.62,7.444,7.444,0,0,1,6.09,2.76,11.628,11.628,0,0,1,2.25,7.56,43.917,43.917,0,0,1-3,15.06A43.706,43.706,0,0,0,51.84-25.92ZM34.14-37.74q0,5.88,3.78,8.7a35.309,35.309,0,0,0,2.34-11.1,7.827,7.827,0,0,0-.66-3.69A2.005,2.005,0,0,0,37.8-45a3.009,3.009,0,0,0-2.64,1.89A11.488,11.488,0,0,0,34.14-37.74Zm22.38,5.82a5.382,5.382,0,0,1-3.78-1.17,4.242,4.242,0,0,1-1.26-3.27,4.432,4.432,0,0,1,1.65-3.51,6.105,6.105,0,0,1,4.11-1.41,5.673,5.673,0,0,1,3.6,1.08,3.66,3.66,0,0,1,1.38,3.06,4.88,4.88,0,0,1-1.56,3.81A5.939,5.939,0,0,1,56.52-31.92ZM56.04.3a6.235,6.235,0,0,1-5.67-2.76A13.4,13.4,0,0,1,48.6-9.78a44.8,44.8,0,0,1,.69-6.93,64.707,64.707,0,0,1,1.77-7.89,5.084,5.084,0,0,1,1.44-2.64,4.614,4.614,0,0,1,2.88-.72q3.06,0,3.06,2.04a47.044,47.044,0,0,1-1.14,6.96,51.89,51.89,0,0,0-1.44,8.94,6.329,6.329,0,0,0,.48,2.76,1.67,1.67,0,0,0,1.62.96,4.517,4.517,0,0,0,2.7-1.5,53.7,53.7,0,0,0,4.32-4.74,2.106,2.106,0,0,1,1.62-.84,1.386,1.386,0,0,1,1.23.72,3.722,3.722,0,0,1,.45,1.98,5.517,5.517,0,0,1-1.14,3.72Q61.2.3,56.04.3ZM93.72-18.24a2.105,2.105,0,0,1,.6-.06,1.664,1.664,0,0,1,1.38.6,2.521,2.521,0,0,1,.48,1.62,5.09,5.09,0,0,1-.72,2.91,4.076,4.076,0,0,1-2.16,1.53,18.851,18.851,0,0,1-5.88.9,16.844,16.844,0,0,1-4.98-.72Q80.7-8.64,78.6-5.64A20.4,20.4,0,0,1,74.46-.96,6.582,6.582,0,0,1,70.5.3a4.541,4.541,0,0,1-3.87-1.92,12.178,12.178,0,0,1-1.77-6.06q-.72-8.4-.72-14.7v-2.1a3.416,3.416,0,0,1,1.08-2.76,5,5,0,0,1,3.06-.78,3.322,3.322,0,0,1,2.31.69,3.024,3.024,0,0,1,.75,2.31q0,6.9.84,17.94,3.6-5.34,5.4-8.52a8.9,8.9,0,0,1-.9-4.14,9.231,9.231,0,0,1,.9-3.96,8.3,8.3,0,0,1,2.46-3.12,5.654,5.654,0,0,1,3.54-1.2,3.575,3.575,0,0,1,2.82,1.23,5.254,5.254,0,0,1,1.08,3.57,16.464,16.464,0,0,1-1.44,6.18,42.727,42.727,0,0,0,6.06-.9ZM101.1.3a10.137,10.137,0,0,1-6.03-1.77,10.992,10.992,0,0,1-3.75-4.65,15.248,15.248,0,0,1-1.26-6.18,18.594,18.594,0,0,1,1.71-8.13,13.8,13.8,0,0,1,4.65-5.58,11.426,11.426,0,0,1,6.6-2.01,10.274,10.274,0,0,1,6.06,1.77,10.911,10.911,0,0,1,3.78,4.65,15.248,15.248,0,0,1,1.26,6.18,18.324,18.324,0,0,1-1.74,8.13,13.932,13.932,0,0,1-4.71,5.58A11.469,11.469,0,0,1,101.1.3Zm.66-6.48a4.066,4.066,0,0,0,3.45-2.22,12.175,12.175,0,0,0,1.41-6.48,8.55,8.55,0,0,0-1.2-4.98,3.483,3.483,0,0,0-2.88-1.68,4.153,4.153,0,0,0-3.57,2.19q-1.41,2.19-1.41,6.51a8.506,8.506,0,0,0,1.2,5.04A3.608,3.608,0,0,0,101.76-6.18ZM149.16.3a14.014,14.014,0,0,1-7.47-2.04,14.041,14.041,0,0,1-5.25-5.91,20.37,20.37,0,0,1-1.92-9.15,37.118,37.118,0,0,1,3.9-16.89,30.591,30.591,0,0,1,11.52-12.48q7.62-4.71,18.3-4.71a44.85,44.85,0,0,1,5.91.42,32.329,32.329,0,0,1,5.73,1.26,2.222,2.222,0,0,1,1.68,2.4,4.477,4.477,0,0,1-1.17,2.94,3.494,3.494,0,0,1-2.73,1.38,3.2,3.2,0,0,1-.72-.06q-3.12-.72-5.34-1.05a31.829,31.829,0,0,0-4.68-.33,22.236,22.236,0,0,0-12.96,3.69,22.554,22.554,0,0,0-7.98,9.75,32.39,32.39,0,0,0-2.64,13.08q0,5.1,2.01,7.89a6.19,6.19,0,0,0,5.25,2.79,8.482,8.482,0,0,0,6.42-3q2.76-3,5.04-9.72a144.009,144.009,0,0,0,4.5-18.24A3.189,3.189,0,0,1,168-39.96a5.929,5.929,0,0,1,2.88-.6q4.26,0,4.26,2.76a5.127,5.127,0,0,1-.18,1.2q-1.56,5.82-2.85,12.87a64.815,64.815,0,0,0-1.29,10.71,8.867,8.867,0,0,0,.96,4.71,3.268,3.268,0,0,0,2.94,1.47,6.052,6.052,0,0,0,3.66-1.29,29.04,29.04,0,0,0,4.38-4.41,2.106,2.106,0,0,1,1.62-.84,1.386,1.386,0,0,1,1.23.72,3.722,3.722,0,0,1,.45,1.98,5.662,5.662,0,0,1-1.14,3.72,27.234,27.234,0,0,1-5.76,5.4A12.258,12.258,0,0,1,172.26.3a9.486,9.486,0,0,1-6.78-2.43A11.4,11.4,0,0,1,162.24-9Q157.8.3,149.16.3Zm66.12-13.68a1.386,1.386,0,0,1,1.23.72,3.722,3.722,0,0,1,.45,1.98,5.517,5.517,0,0,1-1.14,3.72,28.965,28.965,0,0,1-5.4,5.13A9.911,9.911,0,0,1,204.6.3q-4.56,0-6.96-5.34a17.239,17.239,0,0,1-4.41,4.26A8.735,8.735,0,0,1,188.82.3a7.634,7.634,0,0,1-6.03-2.73,10.456,10.456,0,0,1-2.37-7.11,19.763,19.763,0,0,1,2.04-8.91,18.2,18.2,0,0,1,5.61-6.72,16.308,16.308,0,0,1,8.01-3.09,75.438,75.438,0,0,1,4.35-19.89q3.21-8.25,8.43-8.25a5.135,5.135,0,0,1,4.29,2.34q1.71,2.34,1.71,7.08,0,6.72-3.3,15.72a116.773,116.773,0,0,1-8.82,18.48,13.1,13.1,0,0,0,1.05,4.98,2.376,2.376,0,0,0,2.07,1.5,5.128,5.128,0,0,0,3.3-1.44,43.781,43.781,0,0,0,4.5-4.8A2.106,2.106,0,0,1,215.28-13.38ZM208.2-50.52q-1.14,0-2.28,4.05a73.943,73.943,0,0,0-1.95,10.59q-.81,6.54-1.17,13.68,6.72-14.64,6.72-23.52a12.529,12.529,0,0,0-.39-3.54Q208.74-50.52,208.2-50.52ZM190.92-5.76a3.611,3.611,0,0,0,2.28-.93,17.584,17.584,0,0,0,2.88-3.45,40.053,40.053,0,0,1-.6-7.26q0-1.44.12-4.68a10.051,10.051,0,0,0-5.49,4.41,13.586,13.586,0,0,0-2.19,7.53Q187.92-5.76,190.92-5.76ZM216.36.3a3.278,3.278,0,0,1-3.21-2.4,23,23,0,0,1-.93-7.68,48.863,48.863,0,0,1,2.22-14.82,4.514,4.514,0,0,1,1.77-2.55,6.243,6.243,0,0,1,3.45-.81,3.381,3.381,0,0,1,1.68.3,1.239,1.239,0,0,1,.48,1.14,22.872,22.872,0,0,1-.9,4.32q-.6,2.4-.96,4.17a41.583,41.583,0,0,0-.6,4.41,32.467,32.467,0,0,1,3.87-7.92,18.231,18.231,0,0,1,4.62-4.83,8.119,8.119,0,0,1,4.47-1.59,3.865,3.865,0,0,1,2.97.96,4.268,4.268,0,0,1,.87,2.94,38.011,38.011,0,0,1-1.14,6.96q-.48,2.16-.66,3.24,3-7.38,6.66-10.74t6.84-3.36q3.9,0,3.9,3.9a48.221,48.221,0,0,1-1.32,8.46,41.641,41.641,0,0,0-1.14,6.9q0,2.4,1.74,2.4a4.688,4.688,0,0,0,2.85-1.47,48.154,48.154,0,0,0,4.41-4.77,2.106,2.106,0,0,1,1.62-.84,1.386,1.386,0,0,1,1.23.72,3.722,3.722,0,0,1,.45,1.98,5.517,5.517,0,0,1-1.14,3.72,26.553,26.553,0,0,1-5.55,5.22A11.639,11.639,0,0,1,248.16.3a5.833,5.833,0,0,1-4.62-1.77,7.529,7.529,0,0,1-1.56-5.13,37.459,37.459,0,0,1,.84-6,31.05,31.05,0,0,0,.78-5.22q0-.96-.66-.96-.78,0-2.22,2.01a29.483,29.483,0,0,0-2.88,5.31A43.1,43.1,0,0,0,235.5-4.5a9.154,9.154,0,0,1-1.53,3.84,3.6,3.6,0,0,1-2.79.96,3.179,3.179,0,0,1-2.97-1.89,9.789,9.789,0,0,1-.99-4.59,51.927,51.927,0,0,1,.6-6.6q.48-3.84.48-5.04,0-.96-.66-.96-.9,0-2.28,2.16a31,31,0,0,0-2.67,5.52,53.114,53.114,0,0,0-2.07,6.6,9.357,9.357,0,0,1-1.53,3.81A3.452,3.452,0,0,1,216.36.3ZM264.6-31.92a5.382,5.382,0,0,1-3.78-1.17,4.242,4.242,0,0,1-1.26-3.27,4.432,4.432,0,0,1,1.65-3.51,6.105,6.105,0,0,1,4.11-1.41,5.673,5.673,0,0,1,3.6,1.08,3.66,3.66,0,0,1,1.38,3.06,4.88,4.88,0,0,1-1.56,3.81A5.939,5.939,0,0,1,264.6-31.92ZM264.12.3a6.235,6.235,0,0,1-5.67-2.76,13.4,13.4,0,0,1-1.77-7.32,44.805,44.805,0,0,1,.69-6.93,64.7,64.7,0,0,1,1.77-7.89,5.084,5.084,0,0,1,1.44-2.64,4.614,4.614,0,0,1,2.88-.72q3.06,0,3.06,2.04a47.045,47.045,0,0,1-1.14,6.96,51.891,51.891,0,0,0-1.44,8.94,6.329,6.329,0,0,0,.48,2.76,1.67,1.67,0,0,0,1.62.96,4.517,4.517,0,0,0,2.7-1.5,53.707,53.707,0,0,0,4.32-4.74,2.106,2.106,0,0,1,1.62-.84,1.386,1.386,0,0,1,1.23.72,3.722,3.722,0,0,1,.45,1.98,5.517,5.517,0,0,1-1.14,3.72Q269.28.3,264.12.3Zm11.64,0a3.278,3.278,0,0,1-3.21-2.4,23,23,0,0,1-.93-7.68,48.862,48.862,0,0,1,2.22-14.82,4.514,4.514,0,0,1,1.77-2.55,6.243,6.243,0,0,1,3.45-.81,3.381,3.381,0,0,1,1.68.3,1.239,1.239,0,0,1,.48,1.14,22.872,22.872,0,0,1-.9,4.32q-.6,2.4-.96,4.2a43.046,43.046,0,0,0-.6,4.44,34.115,34.115,0,0,1,4.44-8.4,17.411,17.411,0,0,1,4.83-4.62,8.783,8.783,0,0,1,4.35-1.38,3.945,3.945,0,0,1,2.91.99,3.945,3.945,0,0,1,.99,2.91,47.5,47.5,0,0,1-.66,5.88q-.6,3.66-.96,6.93a67.047,67.047,0,0,0-.36,7.29,4.7,4.7,0,0,1-.93,3.27,4,4,0,0,1-3.03.99,3.656,3.656,0,0,1-2.88-1.02,4.509,4.509,0,0,1-.9-3.06,60.2,60.2,0,0,1,.84-7.92,56.516,56.516,0,0,0,.72-6.12q0-.96-.66-.96-.78,0-2.19,2.01a32.22,32.22,0,0,0-2.88,5.31,41.3,41.3,0,0,0-2.37,6.96,9.357,9.357,0,0,1-1.53,3.81A3.452,3.452,0,0,1,275.76.3Z" transform="translate(-7.38 56.4)" fill="#435eef"/>
</svg>
