<?xml version="1.0" encoding="UTF-8"?>
<svg width="170px" height="40px" viewBox="0 0 170 40" version="1.1" xmlns="http://www.w3.org/2000/svg" xmlns:xlink="http://www.w3.org/1999/xlink">
    <g stroke="none" stroke-width="1" fill="none" fill-rule="evenodd">
        <g transform="translate(-998.000000, -1997.000000)" fill="#707A8A">
            <g id="Group-23" transform="translate(753.000000, 1929.000000)">
                <g id="Group-21" transform="translate(0.000000, 68.000000)">
                    <g id="Group" transform="translate(245.000000, 0.000000)">
                        <path d="M34.9714288,6.13137045 L35.1849415,7.40421145 C35.3532159,8.58829797 35.431115,9.78317747 35.4181319,10.9787972 C35.4167118,13.6209258 35.093552,16.2532516 34.4554483,18.8193593 C33.592573,22.3056206 32.0895653,25.6065309 30.0209773,28.558745 C27.630548,31.9492799 24.1741782,35.2840996 19.1360901,37.9636385 L18.5196926,38.2912288 L17.9033966,37.9636385 C12.8653085,35.2840996 9.41037898,31.9492799 7.01853981,28.558745 C4.94992133,25.6065309 3.44696441,22.3056206 2.58401812,18.8193593 C1.94608682,16.2537518 1.62287628,13.621826 1.62134467,10.9801976 C1.6083209,9.78456785 1.68629107,8.58968835 1.85459587,7.40560183 L2.06804771,6.13276083 C2.08626475,6.02896221 2.08347539,5.92262289 2.05984192,5.81988456 C2.03620845,5.71715623 1.99218731,5.62004945 1.93031427,5.53416577 C1.86845138,5.44828208 1.78996391,5.37532196 1.6993757,5.31949657 C1.60878748,5.26366117 1.50789386,5.2260608 1.40250684,5.20886606 C1.29711981,5.19166132 1.18932887,5.19520229 1.08533145,5.21927893 C0.981334032,5.24334557 0.883202381,5.28748774 0.796581144,5.34913474 C0.709959907,5.41078174 0.636566313,5.48872324 0.580629031,5.57846798 C0.524691748,5.66822273 0.487316377,5.76800025 0.470658329,5.87205894 L0.257202438,7.14489994 C0.0735997802,8.41509021 -0.0119341145,9.69719376 0.00133714471,10.9801976 C0.00235449972,13.7519619 0.341227037,16.5135234 1.01065779,19.2055658 C1.92191577,22.8817795 3.50825928,26.3622393 5.69115017,29.4746976 C8.21446447,33.0562852 11.8743256,36.5778563 17.1414454,39.3730271 L18.1422671,39.9041736 C18.2602316,39.9670909 18.3920922,40 18.5260828,40 C18.6600734,40 18.7920354,39.9670909 18.9098985,39.9041736 L19.9093002,39.3730271 C25.1708412,36.5764559 28.8321021,33.0562852 31.3596664,29.4746976 C33.5414516,26.3624393 35.1268214,22.8824797 36.0372679,19.2069662 C36.7067139,16.5149238 37.0455956,13.7533623 37.0466099,10.9815979 C37.0598974,9.69859414 36.9742894,8.41649059 36.7908004,7.14630033 L36.5772877,5.87345933 C36.560653,5.76939063 36.5232249,5.66961312 36.4673363,5.57986837 C36.4114477,5.49011362 36.3380115,5.41217213 36.2513892,5.35052513 C36.164767,5.28887813 36.0665816,5.24474596 35.9626146,5.22066932 C35.8586476,5.19659268 35.7508262,5.1930617 35.6454392,5.21025645 C35.5400522,5.22746119 35.4391281,5.26505156 35.34855,5.32088695 C35.257972,5.37671235 35.1794642,5.44967247 35.1176926,5.53555615 C35.0558196,5.62143983 35.0117984,5.71854661 34.988165,5.82128494 C34.9645315,5.92402327 34.9616914,6.03035259 34.979949,6.13416122 L34.9714288,6.13137045 L34.9714288,6.13137045 Z" id="Path"></path>
                        <path d="M6.49145254,5.26422133 L18.5217212,1.63950178 L30.8205595,5.34229286 C31.0264648,5.4029996 31.2483963,5.38079347 31.4377684,5.28053583 C31.627039,5.18027818 31.7684341,5.01014126 31.8308143,4.80734534 C31.8932959,4.60454942 31.8716911,4.38562905 31.7708685,4.19847744 C31.6700459,4.01132583 31.49812,3.87119719 31.2927218,3.80875997 L18.7577517,0.0348708917 C18.6039819,-0.0116236306 18.4394605,-0.0116236306 18.2855894,0.0348708917 L6.01788037,3.72789767 C5.91535371,3.75812601 5.81990694,3.80801977 5.73698693,3.87471816 C5.65407706,3.94142656 5.58534727,4.02361922 5.53472296,4.11658486 C5.48410879,4.20955049 5.4526144,4.3114686 5.44203512,4.41646755 C5.43146599,4.52147651 5.44202498,4.62750575 5.47311364,4.72847359 C5.50420231,4.82945144 5.55520192,4.92336733 5.62319126,5.0048498 C5.6911806,5.08633227 5.77482077,5.15376087 5.86931408,5.20328452 C5.96379725,5.25279818 6.06727737,5.28342662 6.17379028,5.29340938 C6.28031334,5.30338213 6.38778985,5.29251913 6.49004265,5.26143056 L6.49145254,5.26422133 L6.49145254,5.26422133 Z" id="Path"></path>
                        <path d="M0.551017204,6.36558504 L17.7983139,39.5626794 C17.8655628,39.6924152 17.9676026,39.8015453 18.0932758,39.8780664 C18.2189491,39.9546875 18.3634886,39.9958989 18.5112738,39.997231 C18.6589577,39.9984996 18.8042072,39.9598889 18.9313005,39.8854684 C19.0582923,39.8110479 19.1622593,39.7037183 19.2318411,39.5751829 L29.7498517,20.1758333 L29.7653706,20.1452249 L36.4975628,6.34327889 C36.5887494,6.15280636 36.6001097,5.93451617 36.5290064,5.73586139 C36.4580046,5.53720661 36.3103208,5.37423166 36.1180072,5.28238634 C35.925795,5.19054101 35.7045736,5.17722734 35.5024212,5.24535613 C35.3002688,5.31348491 35.1336173,5.45754464 35.0385763,5.64620666 L28.3177444,19.4369296 L18.5433261,37.4770043 L1.99158886,5.63505359 C1.94388577,5.54051752 1.87764104,5.45624428 1.79666851,5.38713522 C1.71570612,5.31802616 1.62163882,5.26544166 1.51991346,5.23244256 C1.41819824,5.19943346 1.3108536,5.18666994 1.20408711,5.1948722 C1.09733076,5.20308447 0.993282628,5.23210247 0.897977865,5.28024575 C0.802669045,5.32838902 0.717999344,5.39470731 0.648869919,5.47535955 C0.579741508,5.55600179 0.527528779,5.64937754 0.495257426,5.7500653 C0.462986073,5.85076307 0.45129714,5.9567623 0.460868189,6.06194131 C0.470440252,6.16712031 0.501081606,6.26937851 0.551017204,6.36279427 L0.551017204,6.36558504 Z" id="Path"></path>
                        <path d="M8.80718788,21.1496018 L27.9865715,21.1496018 C28.2012,21.1496018 28.4070039,21.0655787 28.5588464,20.9158374 C28.7105875,20.7661961 28.7958912,20.5632402 28.7958912,20.3514818 C28.7958912,20.1398234 28.7105875,19.9368674 28.5588464,19.7871261 C28.4070039,19.6374849 28.2012,19.5533617 27.9865715,19.5533617 L8.80718788,19.5533617 C8.59253915,19.5533617 8.38668452,19.6374849 8.23490286,19.7871261 C8.08313134,19.9368674 7.99785812,20.1398234 7.99785812,20.3514818 C7.99785812,20.5632402 8.08313134,20.7661961 8.23490286,20.9158374 C8.38668452,21.0655787 8.59253915,21.1496018 8.80718788,21.1496018 L8.80718788,21.1496018 Z M62.3034878,14.2627027 L49.8264349,14.2627027 C49.6107922,14.263803 49.4042782,14.3488265 49.2518271,14.4991679 C49.099376,14.6495094 49.0132609,14.8530655 49.0121452,15.0657242 L49.0121452,24.9416475 C49.0135652,25.1541061 49.0998832,25.3575622 49.2522329,25.5078037 C49.4045825,25.6581451 49.6108936,25.7431686 49.8264349,25.744669 L62.3034878,25.744669 L62.3034878,27.4175565 L49.8264349,27.4175565 C49.4971892,27.4190307 49.1709865,27.3562134 48.86649,27.2326793 C48.5620949,27.1090452 48.285492,26.9272951 48.0527074,26.6977318 C47.8199228,26.4681685 47.6356223,26.1953933 47.5102533,25.8952105 C47.3849858,25.5949277 47.321287,25.273239 47.3227818,24.9486495 L47.3227818,15.0727261 C47.321287,14.7480366 47.3849858,14.4263479 47.5102533,14.1261651 C47.6356223,13.8258823 47.8199228,13.5531071 48.0527074,13.3235438 C48.285492,13.0939804 48.5620949,12.9122303 48.86649,12.7886963 C49.1709865,12.6650622 49.4971892,12.6022448 49.8264349,12.603719 L62.3034878,12.603719 L62.3034878,14.2627027 L62.3034878,14.2627027 Z M85.7323725,12.5953429 L85.7323725,14.2683043 L73.7161216,14.2683043 L73.7161216,19.1574525 L83.3742998,19.1574525 L83.3742998,20.8443177 L73.7147016,20.8443177 L73.7147016,25.7418682 L85.7309525,25.7418682 L85.7309525,27.4148295 L72.0182646,27.4148295 L72.0182646,12.5953429 L85.7323725,12.5953429 Z" id="Shape"></path>
                        <path d="M110.476157,15.0852296 L110.476157,19.4265267 C110.478139,19.7511162 110.414237,20.0727049 110.288462,20.3728877 C110.162688,20.6729704 109.979097,20.9457456 109.745805,21.1752089 C109.513528,21.4047722 109.236621,21.5865223 108.932327,21.7101564 C108.628033,21.8337905 108.301425,21.8968079 107.972788,21.8955075 L105.678414,21.8955075 L110.392936,27.409228 L108.160435,27.409228 L103.466199,21.8955075 L97.9526016,21.8955075 C97.6799545,21.8818038 97.4081189,21.8543962 97.1383118,21.8132849 L97.1383118,27.409228 L95.4418749,27.409228 L95.4418749,12.616229 L107.959602,12.616229 C108.289253,12.6149484 108.614847,12.6779657 108.919141,12.8015998 C109.224449,12.9252339 109.500342,13.106984 109.733634,13.3365473 C109.965911,13.5661106 110.150516,13.8387858 110.275276,14.1388686 C110.401051,14.4390514 110.464953,14.76064 110.463938,15.0852296 L110.476157,15.0852296 L110.476157,15.0852296 Z M97.9582817,20.2086424 L107.972788,20.2086424 C108.077262,20.2099427 108.180722,20.1906374 108.278096,20.1517267 C108.374455,20.112916 108.4627,20.0554001 108.536745,19.98248 C108.61079,19.9095599 108.668606,19.822836 108.708164,19.7274097 C108.747722,19.6318833 108.766994,19.5295551 108.766018,19.4265267 L108.766018,15.0852296 C108.766994,14.9807007 108.747722,14.8767721 108.709178,14.7796453 C108.66962,14.6825185 108.61079,14.5939941 108.536745,14.5192735 C108.464729,14.4427524 108.377498,14.3820356 108.280124,14.3412244 C108.18275,14.3003131 108.077262,14.2803076 107.971773,14.2822081 L97.9568617,14.2822081 C97.7412189,14.2833084 97.5348064,14.3683319 97.3822539,14.5186733 C97.2298028,14.6690148 97.1436877,14.8726709 97.142572,15.0852296 L97.142572,19.4265267 C97.1403405,19.5309555 97.1606267,19.6345841 97.2021121,19.7307106 C97.243496,19.8268371 97.3051662,19.9132609 97.3828625,19.9841805 C97.4588345,20.0574007 97.5488039,20.1150166 97.6475979,20.1535272 C97.7463919,20.1921378 97.8519818,20.210843 97.9582817,20.2086424 L97.9582817,20.2086424 Z" id="Shape" fill-rule="nonzero"></path>
                        <path d="M119.448715,12.5953429 L134.464591,12.5953429 L134.464591,14.2683043 L127.820847,14.2683043 L127.820847,27.4161299 L126.123902,27.4161299 L126.123902,14.2683043 L119.448715,14.2683043 L119.448715,12.5953429 Z M143.566013,27.409228 L143.566013,12.5953429 L145.262957,12.5953429 L145.262957,27.409228 L143.566013,27.409228 Z M167.809086,12.5953429 L169.979714,12.5953429 L163.700108,20.0022855 L170,27.409228 L167.809086,27.409228 L162.218198,20.8457181 L157.3779,20.8457181 L157.3779,27.409228 L155.669799,27.409228 L155.669799,12.5953429 L157.380943,12.5953429 L157.380943,19.1574525 L162.221241,19.1574525 L167.809086,12.5953429 Z" id="Shape"></path>
                    </g>
                </g>
            </g>
        </g>
    </g>
</svg>