<?xml version="1.0" encoding="UTF-8"?>
<svg width="150px" height="18px" viewBox="0 0 150 18" version="1.1" xmlns="http://www.w3.org/2000/svg" xmlns:xlink="http://www.w3.org/1999/xlink">
    <g stroke="none" stroke-width="1" fill="none" fill-rule="evenodd">
        <g transform="translate(-753.000000, -2008.000000)" fill="#707A8A">
            <g id="Group-23" transform="translate(753.000000, 1929.000000)">
                <g id="Group-21" transform="translate(0.000000, 68.000000)">
                    <g id="Group" transform="translate(0.000000, 11.000000)">
                        <path d="M12.582602,0 L12.582602,6.13576071 L5.23883995,6.13576071 L5.23883995,0.00159470357 L0,0.00159470357 L0,18 L5.23883995,18 L5.23883995,11.6425714 L12.582602,11.6425714 L12.582602,17.9967857 L17.8217814,17.9967857 L17.8217814,0 L12.582602,0 Z M53.1163726,0 L53.1163726,0.00159467143 L50.4950537,0.00159467143 L50.4950537,18 L55.7939891,18 L55.7939891,17.9983929 L69.8019836,17.9983929 L69.8019836,12.8874643 L55.7939891,12.8874643 L55.7939891,5.11091786 L69.7983768,5.11091786 L69.7983768,0 L53.1163726,0 Z M144.752016,0 L144.752016,7.73884286 L137.441341,0 L137.42651,0.0121203214 L137.42651,0 L132.178219,0 L132.178219,18 L137.42651,18 L137.42651,10.005675 L144.752016,18 L150,18 L150,0 L144.752016,0 Z M93.9873079,0 L93.9873079,6.12606429 L85.7144688,6.12606429 L85.7144688,0.00318882857 L80.1980228,0.00318882857 L80.1980228,17.9987143 L85.7144688,17.9987143 L85.7144688,11.6306786 L93.9828524,11.6306786 L93.9828524,18 L99.4993303,18 L99.4993303,11.4559286 L94.3545639,11.4559286 L99.5049526,6.12606429 L99.5049526,0 L93.9873079,0 Z M25.7805031,0.00159467143 L25.7805031,0 L42.1470311,0 L42.1470311,0.00159467143 L43.0693083,0.00159467143 L43.0693083,17.9983929 L37.8708644,17.9983929 L37.8708644,14.1017143 L30.4462466,14.1017143 L30.4462466,18 L25.2475269,18 L25.2475269,0.00159467143 L25.7805031,0.00159467143 Z M37.8708644,8.78408571 L30.4462466,8.78408571 L30.4462466,5.11091786 L37.8708644,5.11091786 L37.8708644,8.78408571 Z M108.384288,0 L108.384288,0.00127541786 L106.930678,0.00127541786 L106.930678,17.9951786 L108.352262,17.9951786 L108.352262,18 L124.719892,18 L124.719892,12.8948571 L112.130119,12.8948571 L112.130119,11.5531071 L124.722226,11.5531071 L124.722226,6.44756786 L112.130119,6.44756786 L112.130119,5.10550714 L124.752459,5.10550714 L124.752459,0 L108.384288,0 Z" id="Combined-Shape"></path>
                    </g>
                </g>
            </g>
        </g>
    </g>
</svg>