<?xml version="1.0" encoding="UTF-8"?>
<svg width="19px" height="18px" viewBox="0 0 19 18" version="1.1" xmlns="http://www.w3.org/2000/svg" xmlns:xlink="http://www.w3.org/1999/xlink">
    <g id="" stroke="none" stroke-width="1" fill="none" fill-rule="evenodd" stroke-linecap="round" stroke-linejoin="round">
        <g id="" transform="translate(-1007.000000, -399.000000)" fill-rule="nonzero" stroke-width="0.5">
            <g id="Group-4" transform="translate(195.000000, 121.000000)">
                <g id="Group" transform="translate(813.000000, 279.000000)">
                    <polygon id="Path" stroke="#E2761B" fill="#E2761B" points="16.1533333 0 9.52 5.00169205 10.7466667 2.05076142"></polygon>
                    <g transform="translate(0.140000, 0.000000)" fill="#E4761B" id="Path" stroke="#E4761B">
                        <polygon points="0.7 0 7.28 5.04906937 6.11333333 2.05076142"></polygon>
                        <polygon points="13.6266667 11.5939086 11.86 14.3417936 15.64 15.3976311 16.7266667 11.6548223"></polygon>
                        <polygon points="0 11.6548223 1.08 15.3976311 4.86 14.3417936 3.09333333 11.5939086"></polygon>
                        <polygon points="4.64666667 6.95093063 3.59333333 8.56852792 7.34666667 8.73773266 7.21333333 4.642978"></polygon>
                        <polygon points="12.0666667 6.95093063 9.46666667 4.59560068 9.38 8.73773266 13.1266667 8.56852792"></polygon>
                        <polygon points="4.86 14.3417936 7.11333333 13.2250423 5.16666667 11.6818951"></polygon>
                        <polygon points="9.6 13.2250423 11.86 14.3417936 11.5466667 11.6818951"></polygon>
                    </g>
                    <g transform="translate(5.000000, 13.225042)" fill="#D7C1B3" id="Path" stroke="#D7C1B3">
                        <polygon points="7 1.11675127 4.74 0 4.92 1.49576988 4.9 2.12521151"></polygon>
                        <polygon points="0 1.11675127 2.1 2.12521151 2.08666667 1.49576988 2.25333333 0"></polygon>
                    </g>
                    <polygon id="Path" stroke="#233447" fill="#233447" points="7.13333333 10.6937394 5.25333333 10.1319797 6.58 9.51607445"></polygon>
                    <polygon id="Path" stroke="#233447" fill="#233447" points="9.86 10.6937394 10.4133333 9.51607445 11.7466667 10.1319797"></polygon>
                    <g transform="translate(3.233333, 8.568528)" fill="#CD6116" id="Path" stroke="#CD6116">
                        <polygon points="1.76666667 5.77326565 2.08666667 3.02538071 0 3.08629442"></polygon>
                        <polygon points="8.44666667 3.02538071 8.76666667 5.77326565 10.5333333 3.08629442"></polygon>
                        <polygon points="10.0333333 7.10542736e-15 6.28666667 0.169204738 6.63333333 2.12521151 7.18666667 0.947546531 8.52 1.56345178"></polygon>
                        <polygon points="2.02 1.56345178 3.35333333 0.947546531 3.9 2.12521151 4.25333333 0.169204738 0.5 7.10542736e-15"></polygon>
                    </g>
                    <g transform="translate(3.733333, 8.568528)" fill="#E4751F" id="Path" stroke="#E4751F">
                        <polygon points="0 0 1.57333333 3.11336717 1.52 1.56345178"></polygon>
                        <polygon points="8.02 1.56345178 7.95333333 3.11336717 9.53333333 0"></polygon>
                        <polygon points="3.75333333 0.169204738 3.4 2.12521151 3.84 4.43316413 3.94 1.39424704"></polygon>
                        <polygon points="5.78666667 0.169204738 5.60666667 1.38747885 5.68666667 4.43316413 6.13333333 2.12521151"></polygon>
                    </g>
                    <polygon id="Path" stroke="#F6851B" fill="#F6851B" points="9.86666667 10.6937394 9.42 13.001692 9.74 13.2250423 11.6866667 11.6818951 11.7533333 10.1319797"></polygon>
                    <polygon id="Path" stroke="#F6851B" fill="#F6851B" points="5.25333333 10.1319797 5.30666667 11.6818951 7.25333333 13.2250423 7.57333333 13.001692 7.13333333 10.6937394"></polygon>
                    <polygon id="Path" stroke="#C0AD9E" fill="#C0AD9E" points="9.9 15.3502538 9.92 14.7208122 9.75333333 14.571912 7.24 14.571912 7.08666667 14.7208122 7.1 15.3502538 5 14.3417936 5.73333333 14.9509306 7.22 16 9.77333333 16 11.2666667 14.9509306 12 14.3417936"></polygon>
                    <polygon id="Path" stroke="#161616" fill="#161616" points="9.74 13.2250423 9.42 13.001692 7.57333333 13.001692 7.25333333 13.2250423 7.08666667 14.7208122 7.24 14.571912 9.75333333 14.571912 9.92 14.7208122"></polygon>
                    <g fill="#763D16" id="Path" stroke="#763D16">
                        <polygon points="16.4333333 5.32656514 17 2.56514382 16.1533333 0 9.74 4.83248731 12.2066667 6.95093063 15.6933333 7.98646362 16.4666667 7.07275804 16.1333333 6.82910321 16.6666667 6.33502538 16.2533333 6.01015228 16.7866667 5.59729272"></polygon>
                        <polygon points="0 2.56514382 0.566666667 5.32656514 0.206666667 5.59729272 0.74 6.01015228 0.333333333 6.33502538 0.866666667 6.82910321 0.533333333 7.07275804 1.3 7.98646362 4.78666667 6.95093063 7.25333333 4.83248731 0.84 0"></polygon>
                    </g>
                    <polygon id="Path" stroke="#F6851B" fill="#F6851B" points="15.6933333 7.98646362 12.2066667 6.95093063 13.2666667 8.56852792 11.6866667 11.6818951 13.7666667 11.6548223 16.8666667 11.6548223"></polygon>
                    <polygon id="Path" stroke="#F6851B" fill="#F6851B" points="4.78666667 6.95093063 1.3 7.98646362 0.14 11.6548223 3.23333333 11.6548223 5.30666667 11.6818951 3.73333333 8.56852792"></polygon>
                    <polygon id="Path" stroke="#F6851B" fill="#F6851B" points="9.52 8.73773266 9.74 4.83248731 10.7533333 2.05076142 6.25333333 2.05076142 7.25333333 4.83248731 7.48666667 8.73773266 7.56666667 9.96954315 7.57333333 13.001692 9.42 13.001692 9.43333333 9.96954315"></polygon>
                </g>
            </g>
        </g>
    </g>
</svg>