<?xml version="1.0" encoding="utf-8"?>
<!-- Generator: Adobe Illustrator 24.0.1, SVG Export Plug-In . SVG Version: 6.00 Build 0)  -->
<svg version="1.1" id="Layer_1" xmlns="http://www.w3.org/2000/svg" xmlns:xlink="http://www.w3.org/1999/xlink" x="0px" y="0px"
	 viewBox="0 0 512 512" style="enable-background:new 0 0 512 512;" xml:space="preserve">
<style type="text/css">
	.st0{fill:#F9F9F9;}
</style>
<path class="st0" d="M377.1,259.5c0,66.6-54,120.7-120.7,120.7c-66.6,0-120.7-54-120.7-120.7s54-120.7,120.7-120.7
	C323.1,138.8,377.1,192.9,377.1,259.5z"/>
<path class="st0" d="M228.4,100.7l30.3-77.9l26,77.9H228.4z"/>
<path class="st0" d="M228.4,411.3l30.3,77.9l26-77.9H228.4z"/>
<path class="st0" d="M100.7,287.6l-77.9-30.3l77.9-26V287.6z"/>
<path class="st0" d="M411.4,287.6l77.9-30.3l-77.9-26V287.6z"/>
<path class="st0" d="M126.6,165.7L92.9,89.2l73.4,36.7L126.6,165.7z"/>
<path class="st0" d="M346.3,385.4l76.5,33.6l-36.7-73.4L346.3,385.4z"/>
<path class="st0" d="M168.5,388.2L92,421.8l36.7-73.4L168.5,388.2z"/>
<path class="st0" d="M388.2,168.5L421.8,92l-73.4,36.8L388.2,168.5z"/>
</svg>
